<svg width="20" height="20" viewBox="0 0 20 20" fill="none" xmlns="http://www.w3.org/2000/svg">
<g id="cart-plus">
<path id="Vector" d="M17.5249 12.2222H7.34625L7.57351 13.3333H16.8936C17.4283 13.3333 17.8247 13.8299 17.7062 14.3514L17.5146 15.1943C18.1636 15.5093 18.6111 16.1746 18.6111 16.9444C18.6111 18.0279 17.725 18.9043 16.6381 18.8887C15.6025 18.8738 14.7509 18.0334 14.723 16.9982C14.7077 16.4326 14.9342 15.9201 15.3064 15.5555H8.02695C8.38726 15.9085 8.61111 16.4002 8.61111 16.9444C8.61111 18.0491 7.69 18.9386 6.57396 18.8867C5.58299 18.8407 4.77705 18.04 4.72497 17.0493C4.68476 16.2843 5.08733 15.6099 5.69896 15.2582L3.25983 3.33334H0.833333C0.37309 3.33334 0 2.96025 0 2.5V1.94445C0 1.4842 0.37309 1.11111 0.833333 1.11111H4.39337C4.78924 1.11111 5.13045 1.38962 5.20979 1.77743L5.52806 3.33334H19.1663C19.7011 3.33334 20.0974 3.8299 19.9789 4.35136L18.3375 11.5736C18.2513 11.953 17.914 12.2222 17.5249 12.2222ZM14.1667 6.94445H12.5V5.55556C12.5 5.24872 12.2513 5 11.9444 5H11.3889C11.082 5 10.8333 5.24872 10.8333 5.55556V6.94445H9.16667C8.85983 6.94445 8.61111 7.19316 8.61111 7.5V8.05556C8.61111 8.3624 8.85983 8.61111 9.16667 8.61111H10.8333V10C10.8333 10.3068 11.082 10.5556 11.3889 10.5556H11.9444C12.2513 10.5556 12.5 10.3068 12.5 10V8.61111H14.1667C14.4735 8.61111 14.7222 8.3624 14.7222 8.05556V7.5C14.7222 7.19316 14.4735 6.94445 14.1667 6.94445Z" fill="white"/>
</g>
</svg>
