<svg width="24" height="24" viewBox="0 0 24 24" fill="none" xmlns="http://www.w3.org/2000/svg">
<g id="pencil-alt" clip-path="url(#clip0_358_255)">
<path id="Vector" d="M23.3392 6.66108L21.1782 8.82202C20.9579 9.04233 20.6017 9.04233 20.3814 8.82202L15.1782 3.6189C14.9579 3.39858 14.9579 3.04233 15.1782 2.82202L17.3392 0.661084C18.2157 -0.215479 19.6407 -0.215479 20.522 0.661084L23.3392 3.47827C24.2204 4.35483 24.2204 5.77983 23.3392 6.66108ZM13.322 4.67827L1.01261 16.9876L0.01886 22.683C-0.117078 23.4517 0.553235 24.1173 1.32199 23.9861L7.0173 22.9876L19.3267 10.6783C19.547 10.458 19.547 10.1017 19.3267 9.8814L14.1235 4.67827C13.8985 4.45796 13.5423 4.45796 13.322 4.67827ZM5.8173 15.933C5.55948 15.6751 5.55948 15.2626 5.8173 15.0048L13.036 7.78608C13.2939 7.52827 13.7064 7.52827 13.9642 7.78608C14.222 8.0439 14.222 8.4564 13.9642 8.71421L6.74542 15.933C6.48761 16.1908 6.07511 16.1908 5.8173 15.933ZM4.12511 19.8751H6.37511V21.5767L3.35167 22.1064L1.89386 20.6486L2.42355 17.6251H4.12511V19.8751Z" fill="white"/>
</g>
<defs>
<clipPath id="clip0_358_255">
<rect width="24" height="24" fill="white"/>
</clipPath>
</defs>
</svg>
