<svg width="43" height="43" viewBox="0 0 43 43" fill="none" xmlns="http://www.w3.org/2000/svg">
<g filter="url(#filter0_d_94_203)">
<circle cx="21.5" cy="17.5" r="17.5" fill="white"/>
<circle cx="21.5" cy="17.5" r="16.5" stroke="black" stroke-width="2"/>
</g>
<path d="M28.2947 19.2327C28.1817 19.2329 28.0698 19.2162 27.9653 19.1836C27.8609 19.1511 27.766 19.1033 27.6861 19.043C27.6062 18.9827 27.5428 18.9112 27.4997 18.8324C27.4565 18.7536 27.4344 18.6692 27.4345 18.5839V13.3963C27.4345 13.2243 27.3439 13.0592 27.1826 12.9375C27.0213 12.8159 26.8025 12.7475 26.5744 12.7475H14.5382C14.3101 12.7475 14.0913 12.8159 13.93 12.9375C13.7687 13.0592 13.6781 13.2243 13.6781 13.3963V22.4749C13.6781 22.647 13.7687 22.812 13.93 22.9337C14.0913 23.0553 14.3101 23.1237 14.5382 23.1237H21.4158C21.638 23.1302 21.8483 23.2013 22.0024 23.3222C22.1566 23.4431 22.2427 23.6043 22.2427 23.772C22.2427 23.9398 22.1566 24.101 22.0024 24.2218C21.8483 24.3427 21.638 24.4139 21.4158 24.4203H14.5382C13.8542 24.4203 13.1981 24.2154 12.7144 23.8505C12.2307 23.4857 11.959 22.9908 11.959 22.4749V13.3963C11.959 12.8804 12.2307 12.3855 12.7144 12.0207C13.1981 11.6558 13.8542 11.4509 14.5382 11.4509H26.5744C27.2584 11.4509 27.9145 11.6558 28.3982 12.0207C28.8819 12.3855 29.1536 12.8804 29.1536 13.3963V18.5839C29.1538 18.6692 29.1316 18.7536 29.0885 18.8324C29.0453 18.9112 28.982 18.9827 28.902 19.043C28.8221 19.1033 28.7272 19.1511 28.6228 19.1836C28.5184 19.2162 28.4077 19.2329 28.2947 19.2327Z" fill="#57C1E3"/>
<path d="M20.0204 19.8222C19.9608 19.7769 19.92 19.7194 19.9031 19.6568L19.2956 17.3641C19.2828 17.3169 19.2841 17.2682 19.2993 17.2215C19.3146 17.1747 19.3434 17.1312 19.3838 17.0939C19.4242 17.0566 19.4751 17.0266 19.5328 17.006C19.5905 16.9855 19.6536 16.9749 19.7174 16.975C19.7455 16.9751 19.7736 16.9774 19.8012 16.9818L22.8408 17.44C22.9244 17.4523 23.0011 17.4831 23.0614 17.5285L29.8642 22.6597L26.8245 24.9524L20.0204 19.8222Z" fill="#57C1E3"/>
<path d="M31.9637 26.5389C31.5604 26.8427 31.0138 27.0132 30.4439 27.0132C29.874 27.0132 29.3274 26.8427 28.9241 26.5389L27.7338 25.6411L30.7708 23.3493L31.9612 24.2472C32.1608 24.3977 32.3192 24.5764 32.4273 24.7731C32.5354 24.9698 32.591 25.1806 32.591 25.3935C32.591 25.6065 32.5354 25.8173 32.4273 26.014C32.3192 26.2107 32.1608 26.3894 31.9612 26.5399L31.9637 26.5389Z" fill="#57C1E3"/>
<defs>
<filter id="filter0_d_94_203" x="0" y="0" width="43" height="43" filterUnits="userSpaceOnUse" color-interpolation-filters="sRGB">
<feFlood flood-opacity="0" result="BackgroundImageFix"/>
<feColorMatrix in="SourceAlpha" type="matrix" values="0 0 0 0 0 0 0 0 0 0 0 0 0 0 0 0 0 0 127 0" result="hardAlpha"/>
<feOffset dy="4"/>
<feGaussianBlur stdDeviation="2"/>
<feComposite in2="hardAlpha" operator="out"/>
<feColorMatrix type="matrix" values="0 0 0 0 0 0 0 0 0 0 0 0 0 0 0 0 0 0 0.25 0"/>
<feBlend mode="normal" in2="BackgroundImageFix" result="effect1_dropShadow_94_203"/>
<feBlend mode="normal" in="SourceGraphic" in2="effect1_dropShadow_94_203" result="shape"/>
</filter>
</defs>
</svg>
